# xmcd
#
# Track frame offsets: 
#        150
#        17830
#        32360
#        45255
#        57685
#        67928
#        98973
#        110625
#        133848
#        152370
#        180075
#        197870
#        213945
#        230035
#        241608
#
# Disc length: 3450 seconds
#
# Revision: 1
# Processed by: cddbd v1.5.2PL0 Copyright (c) Steve Scherf et al.
# Submitted via: ExactAudioCopy v0.99pb5
#
DISCID=bf0d780f
DTITLE=Maciej Zembaty - W Prosektorium
DYEAR=1991
DGENRE=Ballad, Poetry
TTITLE0=Ballada o Imogenie
TTITLE1=Szpitalna Biel
TTITLE2=Piosenka o Marusce
TTITLE3=Towarzyszu Stalin
TTITLE4=W Prosektorium
TTITLE5=Milosci, Nie Zostawiaj Mnie
TTITLE6=Trudno, Jesli Nie Mozna Inaczej
TTITLE7=Poduszka
TTITLE8=Bajka Dla Rafalka
TTITLE9=Sejm Kalek
TTITLE10=Tempelhof
TTITLE11=Ostatnia Posluga
TTITLE12=Onuce
TTITLE13=Hymn Internowanych Ekstremistow
TTITLE14=Uszy
EXTD=
EXTT0=
EXTT1=
EXTT2=
EXTT3=
EXTT4=
EXTT5=
EXTT6=
EXTT7=
EXTT8=
EXTT9=
EXTT10=
EXTT11=
EXTT12=
EXTT13=
EXTT14=
PLAYORDER=
